<svg id="Layer_1" data-name="Layer 1" xmlns="http://www.w3.org/2000/svg" xmlns:xlink="http://www.w3.org/1999/xlink" viewBox="0 0 2297.85 747.86"><defs><style>.cls-1{fill:none;}.cls-2{font-size:211.2px;font-family:Avenir-Medium, Avenir;font-weight:500;}.cls-18,.cls-2{fill:#231f20;}.cls-3{letter-spacing:-0.02em;}.cls-4{letter-spacing:0.08em;}.cls-5{letter-spacing:0.02em;}.cls-6{letter-spacing:0.02em;}.cls-7{letter-spacing:-0.02em;}.cls-8{font-size:408.86px;font-family:Avenir-Black, Avenir;font-weight:800;}.cls-10,.cls-14,.cls-19,.cls-8{fill:#0bbcd4;}.cls-9{fill:#cfcfce;}.cls-11{fill:#17697a;}.cls-12{fill:#ededee;}.cls-13{fill:#e5e5e5;}.cls-14,.cls-19{fill-rule:evenodd;}.cls-15{opacity:0.14;}.cls-16{clip-path:url(#clip-path);}.cls-17{fill:#254541;}.cls-18{opacity:0.16;}.cls-19{stroke:#fff;stroke-miterlimit:10;stroke-width:14px;}</style><clipPath id="clip-path" transform="translate(-101.43 936.3)"><rect class="cls-1" x="524.2" y="-732.06" width="349.25" height="188.5" transform="translate(1260.28 123.71) rotate(-84.01)"/></clipPath></defs><text class="cls-2" transform="translate(949.71 229.21)"><tspan class="cls-3">A</tspan><tspan class="cls-4" x="144.46" y="0">F</tspan><tspan class="cls-5" x="282.59" y="0">T</tspan><tspan x="408.04" y="0">ER</tspan><tspan class="cls-3" x="666.13" y="0">N</tspan><tspan class="cls-6" x="830.02" y="0">O</tspan><tspan class="cls-7" x="1009.96" y="0">O</tspan><tspan x="1181.45" y="0">N</tspan></text><text class="cls-8" transform="translate(920.4 561.01)">ROAST</text><rect class="cls-9" x="366.33" y="-923.83" width="166.07" height="198.44" transform="translate(42.53 999.74) rotate(-9.61)"/><rect class="cls-10" x="369.86" y="-901.69" width="55.15" height="49.28" transform="translate(50.55 990.34) rotate(-9.61)"/><rect class="cls-10" x="435.63" y="-912.19" width="63.03" height="7.67" transform="translate(56.76 1001.54) rotate(-9.61)"/><rect class="cls-11" x="437.87" y="-898.96" width="63.03" height="7.67" transform="translate(54.58 1002.1) rotate(-9.61)"/><rect class="cls-10" x="440.11" y="-885.72" width="63.03" height="7.67" transform="translate(52.4 1002.66) rotate(-9.61)"/><rect class="cls-11" x="442.35" y="-872.49" width="63.03" height="7.67" transform="translate(50.22 1003.22) rotate(-9.61)"/><rect class="cls-10" x="453.61" y="-806.03" width="63.03" height="7.67" transform="translate(39.29 1006.03) rotate(-9.61)"/><rect class="cls-10" x="455.8" y="-793.07" width="63.03" height="7.67" transform="translate(37.15 1006.58) rotate(-9.61)"/><rect class="cls-10" x="377.53" y="-837.54" width="101.53" height="7.67" transform="translate(43.75 996.1) rotate(-9.61)"/><rect class="cls-11" x="379.55" y="-826.94" width="133.05" height="7.67" transform="translate(42.23 999.22) rotate(-9.61)"/><rect class="cls-11" x="388.05" y="-794.26" width="55.15" height="49.28" transform="translate(32.87 994.89) rotate(-9.61)"/><rect class="cls-12" x="224.74" y="-903.44" width="166.07" height="198.44" transform="translate(182.96 992.87) rotate(-19.39)"/><rect class="cls-10" x="220.13" y="-871.72" width="55.15" height="49.28" transform="translate(193.78 970.5) rotate(-19.39)"/><rect class="cls-10" x="279.57" y="-893.61" width="63.03" height="7.67" transform="translate(211.55 989.12) rotate(-19.39)"/><rect class="cls-11" x="284.03" y="-880.94" width="63.03" height="7.67" transform="translate(207.6 991.31) rotate(-19.39)"/><rect class="cls-10" x="288.48" y="-868.28" width="63.03" height="7.67" transform="matrix(0.94, -0.33, 0.33, 0.94, 203.64, 993.51)"/><rect class="cls-11" x="292.94" y="-855.62" width="63.03" height="7.67" transform="translate(199.69 995.71) rotate(-19.39)"/><rect class="cls-10" x="315.31" y="-792.04" width="63.03" height="7.67" transform="translate(179.86 1006.74) rotate(-19.39)"/><rect class="cls-10" x="319.67" y="-779.64" width="63.03" height="7.67" transform="translate(175.99 1008.89) rotate(-19.39)"/><rect class="cls-10" x="234.71" y="-813.44" width="101.53" height="7.67" transform="translate(183.48 985.16) rotate(-19.39)"/><rect class="cls-11" x="238.27" y="-806.01" width="133.05" height="7.67" transform="translate(182.11 991.99) rotate(-19.39)"/><rect class="cls-11" x="256.3" y="-768.93" width="55.15" height="49.28" transform="translate(161.71 988.33) rotate(-19.39)"/><rect class="cls-13" x="467.2" y="-902.98" width="146.07" height="174.54" transform="translate(-71.42 955.4) rotate(-2.08)"/><rect class="cls-10" x="476.86" y="-889.22" width="55.62" height="49.69" transform="translate(-69.68 954.08) rotate(-2.08)"/><rect class="cls-10" x="537.67" y="-890.06" width="55.44" height="6.75" transform="translate(-68.83 956.27) rotate(-2.08)"/><rect class="cls-11" x="538.1" y="-878.26" width="55.44" height="6.75" transform="matrix(1, -0.04, 0.04, 1, -69.26, 956.29)"/><rect class="cls-11" x="478.19" y="-833.57" width="55.44" height="6.75" transform="translate(-70.92 954.14) rotate(-2.08)"/><rect class="cls-10" x="541.11" y="-795.42" width="55.44" height="6.75" transform="translate(-72.27 956.46) rotate(-2.08)"/><rect class="cls-10" x="541.53" y="-783.87" width="55.44" height="6.75" transform="translate(-72.68 956.48) rotate(-2.08)"/><rect class="cls-11" x="478.68" y="-818.15" width="117.03" height="6.75" transform="matrix(1, -0.04, 0.04, 1, -71.46, 955.29)"/><rect class="cls-11" x="480.23" y="-793.32" width="48.51" height="43.35" transform="translate(-73.05 954.13) rotate(-2.08)"/><rect class="cls-10" x="548.95" y="-866.52" width="45.15" height="40.34" transform="translate(-70.29 956.52) rotate(-2.08)"/><path class="cls-14" d="M797.7-681.63c1.85-43.15-9.15-69.94-32.69-79.65A56.88,56.88,0,0,0,734-765c-15.52,2.47-28.35,10.94-37.91,19.68.71-19.11.52-35.67.07-48.21-.48-13.49-11.41-23.81-23.15-22L442.07-778.78l-3.64.59L207.5-741.48c-11.75,1.86-18.94,15.07-15.22,28,18.17,63.22,77,229.21,203,269.93,6.19,2,11.23,7.3,13.51,14.12,3.4,10.1,12.57,16.34,21.86,14.86l64-10.16,3.64-.58,64-10.18c9.29-1.48,16.08-10.25,16.17-20.91.06-7.19,3.21-13.79,8.47-17.6,36-26.18,60.45-63.48,76.9-104,5.58,10.11,17.5,23.33,42.64,29.46a53.53,53.53,0,0,0,21.17,1h0c46-7.32,61.2-73.08,63-81.93A317.07,317.07,0,0,0,797.7-681.63Zm-27,47.7s-9.3,72.57-53.28,61.84-38.38-42.4-38.38-42.4l4.51-28.28a541.69,541.69,0,0,0,9.52-59.9l1.48-9.3s27.41-44.8,62.79-30.21S770.71-633.93,770.71-633.93Z" transform="translate(-101.43 936.3)"/><path class="cls-10" d="M101.46-402.77a17.4,17.4,0,0,0,16.32,18.4l174.31,10.48a13.22,13.22,0,0,0,12.4,14l343.07,20.63a13.22,13.22,0,0,0,14-12.4l174.3,10.48a17.39,17.39,0,0,0,18.4-16.32Z" transform="translate(-101.43 936.3)"/><g class="cls-15"><g class="cls-16"><path class="cls-17" d="M663.79-577.92c5.58,10.11,17.49,23.33,42.63,29.46a53.53,53.53,0,0,0,21.17,1h0c46-7.32,61.2-73.08,63-81.93a318.27,318.27,0,0,0,7.05-52.22c1.85-43.15-9.15-69.94-32.69-79.65A56.85,56.85,0,0,0,734-765c-15.53,2.47-28.36,10.95-37.92,19.68.71-19.1.52-35.67.07-48.21-.48-13.49-11.41-23.81-23.16-22l-40,6.36-1.38,1.58S683.89-638.88,586.88-474c36-26.18,60.44-63.48,76.91-104m15.27-36.57,4.5-28.28a546.08,546.08,0,0,0,9.52-59.9l1.48-9.31s27.42-44.79,62.79-30.2,13.36,108.24,13.36,108.24-9.3,72.58-53.28,61.85S679.06-614.49,679.06-614.49Z" transform="translate(-101.43 936.3)"/></g></g><path class="cls-18" d="M854.25-357.51l-72.6-4.37c-23.46,7.9-45.23,11.46-63.13,13.63l117.33,7.06A17.39,17.39,0,0,0,854.25-357.51Z" transform="translate(-101.43 936.3)"/><path class="cls-19" d="M614.53-692.08" transform="translate(-101.43 936.3)"/></svg>