<svg xmlns="http://www.w3.org/2000/svg" xmlns:xlink="http://www.w3.org/1999/xlink" viewBox="0 0 752.82 597.06"><defs><style>.cls-1{fill:none;}.cls-2{fill:#cfcfce;}.cls-3,.cls-7{fill:#0bbcd4;}.cls-4{fill:#17697a;}.cls-5{fill:#ededee;}.cls-6{fill:#e5e5e5;}.cls-7{fill-rule:evenodd;}.cls-8{opacity:0.14;}.cls-9{clip-path:url(#clip-path);}.cls-10{fill:#254541;}.cls-11{fill:#231f20;opacity:0.16;}</style><clipPath id="clip-path"><rect class="cls-1" x="422.76" y="204.24" width="349.25" height="188.5" transform="translate(238.23 861.5) rotate(-84.01)"/></clipPath></defs><g id="Layer_2" data-name="Layer 2"><g id="Layer_1-2" data-name="Layer 1"><rect class="cls-2" x="264.89" y="12.47" width="166.07" height="198.44" transform="translate(-13.76 59.65) rotate(-9.61)"/><rect class="cls-3" x="268.43" y="34.62" width="55.15" height="49.28" transform="translate(-5.74 50.24) rotate(-9.61)"/><rect class="cls-3" x="334.2" y="24.11" width="63.03" height="7.67" transform="translate(0.47 61.44) rotate(-9.61)"/><rect class="cls-4" x="336.44" y="37.34" width="63.03" height="7.67" transform="translate(-1.71 62) rotate(-9.61)"/><rect class="cls-3" x="338.68" y="50.58" width="63.03" height="7.67" transform="translate(-3.89 62.56) rotate(-9.61)"/><rect class="cls-4" x="340.92" y="63.82" width="63.03" height="7.67" transform="translate(-6.07 63.12) rotate(-9.61)"/><rect class="cls-3" x="352.17" y="130.27" width="63.03" height="7.67" transform="translate(-17 65.93) rotate(-9.61)"/><rect class="cls-3" x="354.37" y="143.23" width="63.03" height="7.67" transform="translate(-19.14 66.48) rotate(-9.61)"/><rect class="cls-3" x="276.1" y="98.76" width="101.53" height="7.67" transform="translate(-12.54 56) rotate(-9.61)"/><rect class="cls-4" x="278.12" y="109.37" width="133.05" height="7.67" transform="translate(-14.06 59.12) rotate(-9.61)"/><rect class="cls-4" x="286.62" y="142.05" width="55.15" height="49.28" transform="translate(-23.42 54.79) rotate(-9.61)"/><rect class="cls-5" x="123.31" y="32.86" width="166.07" height="198.44" transform="translate(-32.14 75.98) rotate(-19.39)"/><rect class="cls-3" x="118.7" y="64.59" width="55.15" height="49.28" transform="translate(-21.32 53.61) rotate(-19.39)"/><rect class="cls-3" x="178.14" y="42.7" width="63.03" height="7.67" transform="translate(-3.56 72.23) rotate(-19.39)"/><rect class="cls-4" x="182.59" y="55.36" width="63.03" height="7.67" transform="translate(-7.51 74.43) rotate(-19.39)"/><rect class="cls-3" x="187.05" y="68.02" width="63.03" height="7.67" transform="matrix(0.94, -0.33, 0.33, 0.94, -11.46, 76.62)"/><rect class="cls-4" x="191.51" y="80.68" width="63.03" height="7.67" transform="translate(-15.41 78.82) rotate(-19.39)"/><rect class="cls-3" x="213.88" y="144.26" width="63.03" height="7.67" transform="translate(-35.25 89.85) rotate(-19.39)"/><rect class="cls-3" x="218.24" y="156.66" width="63.03" height="7.67" transform="translate(-39.11 92) rotate(-19.39)"/><rect class="cls-3" x="133.28" y="122.86" width="101.53" height="7.67" transform="translate(-31.62 68.27) rotate(-19.39)"/><rect class="cls-4" x="136.84" y="130.29" width="133.05" height="7.67" transform="translate(-32.99 75.11) rotate(-19.39)"/><rect class="cls-4" x="154.87" y="167.37" width="55.15" height="49.28" transform="translate(-53.39 71.44) rotate(-19.39)"/><rect class="cls-6" x="365.77" y="33.32" width="146.07" height="174.54" transform="translate(-4.09 16.03) rotate(-2.08)"/><rect class="cls-3" x="375.42" y="47.08" width="55.62" height="49.69" transform="translate(-2.35 14.71) rotate(-2.08)"/><rect class="cls-3" x="436.24" y="46.24" width="55.44" height="6.75" transform="translate(-1.5 16.9) rotate(-2.08)"/><rect class="cls-4" x="436.67" y="58.04" width="55.44" height="6.75" transform="matrix(1, -0.04, 0.04, 1, -1.93, 16.92)"/><rect class="cls-4" x="376.75" y="102.74" width="55.44" height="6.75" transform="translate(-3.59 14.77) rotate(-2.08)"/><rect class="cls-3" x="439.68" y="140.88" width="55.44" height="6.75" transform="translate(-4.93 17.09) rotate(-2.08)"/><rect class="cls-3" x="440.1" y="152.43" width="55.44" height="6.75" transform="translate(-5.35 17.11) rotate(-2.08)"/><rect class="cls-4" x="377.25" y="118.16" width="117.03" height="6.75" transform="matrix(1, -0.04, 0.04, 1, -4.13, 15.92)"/><rect class="cls-4" x="378.79" y="142.99" width="48.51" height="43.35" transform="translate(-5.72 14.76) rotate(-2.08)"/><rect class="cls-3" x="447.51" y="69.78" width="45.15" height="40.34" transform="translate(-2.96 17.15) rotate(-2.08)"/><path class="cls-7" d="M696.27,254.68c1.84-43.15-9.15-70-32.69-79.65a56.79,56.79,0,0,0-31-3.75C617,173.75,604.22,182.23,594.65,191c.72-19.11.53-35.67.08-48.21-.48-13.49-11.42-23.81-23.15-21.94L340.64,157.52l-3.65.59L106.06,194.82c-11.74,1.87-18.94,15.08-15.21,28,18.17,63.22,77,229.21,203,269.94,6.19,2,11.22,7.29,13.51,14.11,3.39,10.1,12.57,16.34,21.86,14.86l64-10.16,3.65-.58,64-10.17C470.1,499.38,476.89,490.6,477,480c.06-7.2,3.2-13.79,8.47-17.61,36.05-26.18,60.45-63.48,76.9-104,5.58,10.11,17.5,23.33,42.64,29.46a53.3,53.3,0,0,0,21.16,1h0c46-7.32,61.21-73.09,63.05-81.94A315.4,315.4,0,0,0,696.27,254.68Zm-27,47.69S660,374.94,616,364.21s-38.38-42.39-38.38-42.39l4.51-28.28a546.62,546.62,0,0,0,9.52-59.91l1.48-9.3s27.41-44.8,62.79-30.21S669.28,302.37,669.28,302.37Z"/><path class="cls-3" d="M0,533.53a17.4,17.4,0,0,0,16.32,18.41l174.31,10.48a13.21,13.21,0,0,0,12.4,14L546.12,597a13.21,13.21,0,0,0,14-12.4l174.31,10.48a17.4,17.4,0,0,0,18.4-16.32Z"/><g class="cls-8"><g class="cls-9"><path class="cls-10" d="M562.35,358.39c5.59,10.1,17.5,23.32,42.63,29.45a53.58,53.58,0,0,0,21.18,1h0c46-7.32,61.2-73.08,63.05-81.94a318.26,318.26,0,0,0,7-52.21c1.84-43.15-9.15-70-32.7-79.65a56.75,56.75,0,0,0-31-3.75C617,173.75,604.22,182.23,594.66,191c.71-19.1.52-35.67.07-48.21-.48-13.49-11.42-23.81-23.16-21.94l-40,6.36-1.37,1.57s52.22,168.68-44.78,333.6c36.05-26.18,60.43-63.48,76.9-103.95m15.27-36.57,4.51-28.28a546.24,546.24,0,0,0,9.52-59.91l1.48-9.31s27.41-44.79,62.79-30.2,13.36,108.25,13.36,108.25S660,374.94,616,364.21,577.62,321.82,577.62,321.82Z"/></g></g><path class="cls-11" d="M752.82,578.79l-72.61-4.37c-23.45,7.9-45.22,11.47-63.13,13.63l117.34,7.06A17.4,17.4,0,0,0,752.82,578.79Z"/></g></g></svg>